<svg xmlns="http://www.w3.org/2000/svg" viewBox="0 0 3840 1786" width="3840" height="1786" preserveAspectRatio="xMidYMid meet" style="width: 100%; height: 100%; transform: translate3d(0px, 0px, 0px);">
    <defs>
    <clipPath id="__lottie_element_2">
    <rect width="3840" height="1786" x="0" y="0"></rect>
    </clipPath><clipPath id="__lottie_element_7">
        <path d="M0,0 L163,0 L163,165 L0,165z"></path>
    </clipPath>
    <clipPath id="__lottie_element_56">
        <path d="M0,0 L163,0 L163,165 L0,165z"></path>
    </clipPath>
    <clipPath id="__lottie_element_90">
    <path d="M0,0 L163,0 L163,165 L0,165z"></path>
    </clipPath><clipPath id="__lottie_element_124">
    <path d="M0,0 L163,0 L163,165 L0,165z"></path>
    </clipPath><clipPath id="__lottie_element_158">
    <path d="M0,0 L163,0 L163,165 L0,165z"></path>
    </clipPath>
    <clipPath id="__lottie_element_204">
    <path fill="#ffffff" clip-rule="nonzero" d=" M332,-20 C332,-20 164,-16 164,-16 C164,-16 42,32 42,32 C42,32 -32,74 -32,74 C-32,74 -8,184 -8,184 C-8,184 106,292 106,292 C106,292 378,304 378,304 C378,304 1222,294 1222,294 C1222,294 1434,280 1434,280 C1434,280 1504,192 1504,192 C1504,192 1500,44 1500,44 C1500,44 1327,25 1327,25 C1327,25 1094.2969970703125,-36.90599822998047 995.9769897460938,-38.165000915527344 C995.9769897460938,-18 995.75,-3 995.75,20.75 C994.5,30 813,31.5 738.5,32 C667.5360107421875,32.47600173950195 590.5150146484375,30.66900062561035 540.4719848632812,28.489999771118164 C500.5,26.75 483.5,23.5 483.5,23.5 C483.5,23.5 482,-12 482,-12 C482,-12 332,-20 332,-20" fill-opacity="1"></path>
    </clipPath>
    <clipPath id="__lottie_element_216">
    <path d="M0,0 L163,0 L163,165 L0,165z"></path>
    </clipPath>
    <clipPath id="__lottie_element_250">
    <path d="M0,0 L163,0 L163,165 L0,165z"></path>
    </clipPath>
    <clipPath id="__lottie_element_284">
    <path d="M0,0 L163,0 L163,165 L0,165z"></path>
    </clipPath><clipPath id="__lottie_element_345">
    <path fill="#ffffff" clip-rule="nonzero" d=" M164.14500427246094,-38.7760009765625 C164.14500427246094,-38.7760009765625 45.04399871826172,55.19300079345703 42.81999969482422,58.987998962402344 C42.53499984741211,65.12899780273438 35.40700149536133,170.48599243164062 35.40700149536133,170.48599243164062 C35.40700149536133,170.48599243164062 196.86000061035156,180.72799682617188 196.86000061035156,180.72799682617188 C196.86000061035156,180.72799682617188 242.99000549316406,50.24399948120117 242.99000549316406,50.24399948120117 C242.99000549316406,50.24399948120117 261.2969970703125,-2.747999906539917 261.2969970703125,-2.747999906539917 C261.2969970703125,-2.747999906539917 164.14500427246094,-38.7760009765625 164.14500427246094,-38.7760009765625" fill-opacity="1"></path>
    </clipPath>
    <clipPath id="__lottie_element_348"><path fill="#ffffff" clip-rule="nonzero" d=" M164.14500427246094,-38.7760009765625 C164.14500427246094,-38.7760009765625 45.04399871826172,55.19300079345703 42.81999969482422,58.987998962402344 C42.53499984741211,65.12899780273438 35.40700149536133,170.48599243164062 35.40700149536133,170.48599243164062 C35.40700149536133,170.48599243164062 196.86000061035156,180.72799682617188 196.86000061035156,180.72799682617188 C196.86000061035156,180.72799682617188 242.99000549316406,50.24399948120117 242.99000549316406,50.24399948120117 C242.99000549316406,50.24399948120117 261.2969970703125,-2.747999906539917 261.2969970703125,-2.747999906539917 C261.2969970703125,-2.747999906539917 164.14500427246094,-38.7760009765625 164.14500427246094,-38.7760009765625" fill-opacity="1"></path>
    </clipPath>
    <clipPath id="__lottie_element_357">
    <path d="M0,0 L226,0 L226,176 L0,176z"></path>
    </clipPath>
    <clipPath id="__lottie_element_358">
    <path fill="#ffffff" clip-rule="nonzero" d=" M155.4409942626953,-65.76100158691406 C155.4409942626953,-65.76100158691406 -42.981998443603516,106.75599670410156 -42.981998443603516,106.75599670410156 C-42.981998443603516,106.75599670410156 72.49600219726562,239.5749969482422 72.49600219726562,239.5749969482422 C72.49600219726562,239.5749969482422 270.91900634765625,67.05799865722656 270.91900634765625,67.05799865722656 C270.91900634765625,67.05799865722656 155.4409942626953,-65.76100158691406 155.4409942626953,-65.76100158691406" fill-opacity="1"></path>
    </clipPath><clipPath id="__lottie_element_415"><path d="M0,0 L123,0 L123,120 L0,120z"></path></clipPath><clipPath id="__lottie_element_419"><path d="M0,0 L960,0 L960,560 L0,560z"></path></clipPath><clipPath id="__lottie_element_420"><path fill="#ffffff" clip-rule="nonzero" d=" M960,0 C960,0 0,0 0,0 C0,0 0,560 0,560 C0,560 960,560 960,560 C960,560 960,0 960,0" fill-opacity="1"></path>
    </clipPath>
    <clipPath id="__lottie_element_423"><path fill="#ffffff" clip-rule="nonzero" d=" M169.87498474121094,0.1507634073495865 C169.87498474121094,0.1507634073495865 88.62498474121094,0.1507634073495865 88.62498474121094,0.1507634073495865 C88.62498474121094,0.1507634073495865 88.62498474121094,41.40076446533203 88.62498474121094,41.40076446533203 C88.62498474121094,41.40076446533203 169.87498474121094,41.40076446533203 169.87498474121094,41.40076446533203 C169.87498474121094,41.40076446533203 169.87498474121094,0.1507634073495865 169.87498474121094,0.1507634073495865" fill-opacity="1"></path>
    </clipPath>
    <clipPath id="__lottie_element_435">
    <path d="M0,0 L960,0 L960,560 L0,560z"></path></clipPath><clipPath id="__lottie_element_439"><path fill="#ffffff" clip-rule="nonzero" d=" M150.76461791992188,77.61430358886719 C150.76461791992188,77.61430358886719 35.70261764526367,77.61430358886719 35.70261764526367,77.61430358886719 C35.70261764526367,77.61430358886719 35.70261764526367,193.17630004882812 35.70261764526367,193.17630004882812 C35.70261764526367,193.17630004882812 150.76461791992188,193.17630004882812 150.76461791992188,193.17630004882812 C150.76461791992188,193.17630004882812 150.76461791992188,77.61430358886719 150.76461791992188,77.61430358886719" fill-opacity="1"></path></clipPath><clipPath id="__lottie_element_448"><path d="M0,0 L123,0 L123,120 L0,120z"></path></clipPath><clipPath id="__lottie_element_452"><path d="M0,0 L960,0 L960,560 L0,560z"></path></clipPath><clipPath id="__lottie_element_453"><path fill="#ffffff" clip-rule="nonzero" d=" M960,0 C960,0 0,0 0,0 C0,0 0,560 0,560 C0,560 960,560 960,560 C960,560 960,0 960,0" fill-opacity="1"></path></clipPath><clipPath id="__lottie_element_456"><path fill="#ffffff" clip-rule="nonzero" d=" M175.1915740966797,0.19176529347896576 C175.1915740966797,0.19176529347896576 93.94156646728516,0.19176529347896576 93.94156646728516,0.19176529347896576 C93.94156646728516,0.19176529347896576 93.94156646728516,41.44176483154297 93.94156646728516,41.44176483154297 C93.94156646728516,41.44176483154297 175.1915740966797,41.44176483154297 175.1915740966797,41.44176483154297 C175.1915740966797,41.44176483154297 175.1915740966797,0.19176529347896576 175.1915740966797,0.19176529347896576" fill-opacity="1"></path></clipPath><clipPath id="__lottie_element_468"><path d="M0,0 L960,0 L960,560 L0,560z"></path></clipPath><clipPath id="__lottie_element_472"><path fill="#ffffff" clip-rule="nonzero" d=" M150.7281036376953,77.65189361572266 C150.7281036376953,77.65189361572266 35.666107177734375,77.65189361572266 35.666107177734375,77.65189361572266 C35.666107177734375,77.65189361572266 35.666107177734375,193.21389770507812 35.666107177734375,193.21389770507812 C35.666107177734375,193.21389770507812 150.7281036376953,193.21389770507812 150.7281036376953,193.21389770507812 C150.7281036376953,193.21389770507812 150.7281036376953,77.65189361572266 150.7281036376953,77.65189361572266" fill-opacity="1"></path></clipPath></defs><g clip-path="url(#__lottie_element_2)"><g transform="matrix(1,0,0,1,1724,1326)" opacity="1" style="display: block;"><image width="1468px" height="231px" preserveAspectRatio="xMidYMid slice" xlink:href="images/lotties/lottie1-and-5/img_17.png"></image></g><g transform="matrix(1,0,0,1,2088.9375,926.14453125)" opacity="1" style="display: block;"><image width="107px" height="200px" preserveAspectRatio="xMidYMid slice" xlink:href="images/lotties/lottie1-and-5/img_43.png"></image></g><g transform="matrix(1,0,0,1,2725.55615234375,928.6195678710938)" opacity="1" style="display: block;"><image width="107px" height="200px" preserveAspectRatio="xMidYMid slice" xlink:href="images/lotties/lottie1-and-5/img_42.png"></image></g><g clip-path="url(#__lottie_element_448)" style="display: none;" transform="matrix(1,0,0,1,2403.5,662.6396484375)" opacity="1"><g class="ai" style="display: block;" transform="matrix(1,0,0,1,0,0)" opacity="1"><image width="123px" height="120px" preserveAspectRatio="xMidYMid slice" xlink:href="images/lotties/lottie1-and-5/img_41.png"></image></g><g clip-path="url(#__lottie_element_468)" style="display: none;" transform="matrix(1,0,0,1,-418.5,-220)" opacity="1"><g style="display: block;" transform="matrix(1,0,0,1,418.5419921875,220.08798217773438)" opacity="1"><image width="123px" height="120px" preserveAspectRatio="xMidYMid slice" xlink:href="images/lotties/lottie1-and-5/img_40.png"></image></g><g clip-path="url(#__lottie_element_472)" style="display: block;" transform="matrix(1,0,0,1,386.8074035644531,145.728759765625)" opacity="1"><image width="225px" height="224px" preserveAspectRatio="xMidYMid slice" xlink:href="images/lotties/lottie1-and-5/img_39.png"></image></g></g><g clip-path="url(#__lottie_element_452)" style="display: none;" transform="matrix(1,0,0,1,-418.5,-220)" opacity="1"><g clip-path="url(#__lottie_element_453)"><g style="display: block;" transform="matrix(1,0,0,1,418.5889892578125,220.10601806640625)" opacity="1"><image width="123px" height="120px" preserveAspectRatio="xMidYMid slice" xlink:href="images/lotties/lottie1-and-5/img_38.png"></image></g><g style="display: none;" transform="matrix(1,0,0,1,418.5889892578125,220.10601806640625)" opacity="1"><image width="123px" height="120px" preserveAspectRatio="xMidYMid slice" xlink:href="images/lotties/lottie1-and-5/img_37.png"></image></g><g style="display: block;" transform="matrix(-0.164576917886734,0.9863642454147339,-0.9863642454147339,-0.164576917886734,484.8893127441406,241.4755859375)" opacity="1"><image width="19px" height="20px" preserveAspectRatio="xMidYMid slice" xlink:href="images/lotties/lottie1-and-5/img_36.png"></image></g><g clip-path="url(#__lottie_element_456)" style="display: block;" transform="matrix(1,0,0,1,346.3511962890625,289.3509826660156)" opacity="1"><image width="211px" height="38px" preserveAspectRatio="xMidYMid slice" xlink:href="images/lotties/lottie1-and-5/img_35.png"></image></g></g></g></g><g clip-path="url(#__lottie_element_415)" style="display: none;" transform="matrix(1,0,0,1,2403.5,668.2311401367188)" opacity="1"><g class="ai" style="display: block;" transform="matrix(1,0,0,1,0,0)" opacity="1"><image width="123px" height="120px" preserveAspectRatio="xMidYMid slice" xlink:href="images/lotties/lottie1-and-5/img_41.png"></image></g><g clip-path="url(#__lottie_element_435)" style="display: none;" transform="matrix(1,0,0,1,-418.5,-220)" opacity="1"><g style="display: block;" transform="matrix(1,0,0,1,418.5419921875,220.08798217773438)" opacity="1"><image width="123px" height="120px" preserveAspectRatio="xMidYMid slice" xlink:href="images/lotties/lottie1-and-5/img_40.png"></image></g><g clip-path="url(#__lottie_element_439)" style="display: block;" transform="matrix(1,0,0,1,386.770751953125,145.76626586914062)" opacity="1"><image width="225px" height="224px" preserveAspectRatio="xMidYMid slice" xlink:href="images/lotties/lottie1-and-5/img_39.png"></image></g></g><g clip-path="url(#__lottie_element_419)" style="display: none;" transform="matrix(1,0,0,1,-418.5,-220)" opacity="1"><g clip-path="url(#__lottie_element_420)"><g style="display: block;" transform="matrix(1,0,0,1,418.5889892578125,220.10601806640625)" opacity="1"><image width="123px" height="120px" preserveAspectRatio="xMidYMid slice" xlink:href="images/lotties/lottie1-and-5/img_38.png"></image></g><g style="display: none;" transform="matrix(1,0,0,1,418.5889892578125,220.10601806640625)" opacity="1"><image width="123px" height="120px" preserveAspectRatio="xMidYMid slice" xlink:href="images/lotties/lottie1-and-5/img_37.png"></image></g><g style="display: block;" transform="matrix(-0.4871520400047302,0.8733171820640564,-0.8733171820640564,-0.4871520400047302,486.8420715332031,245.62249755859375)" opacity="1"><image width="19px" height="20px" preserveAspectRatio="xMidYMid slice" xlink:href="images/lotties/lottie1-and-5/img_36.png"></image></g><g clip-path="url(#__lottie_element_423)" style="display: block;" transform="matrix(1,0,0,1,351.62677001953125,289.3509826660156)" opacity="1"><image width="211px" height="38px" preserveAspectRatio="xMidYMid slice" xlink:href="images/lotties/lottie1-and-5/img_35.png"></image></g></g></g></g><g transform="matrix(0.9992514848709106,0.03868429362773895,-0.03868429362773895,0.9992514848709106,2807.364013671875,640.5765991210938)" opacity="1" style="display: block;"><image width="140px" height="139px" preserveAspectRatio="xMidYMid slice" xlink:href="images/lotties/lottie1-and-5/img_34.png"></image></g><g transform="matrix(0.9622417688369751,0.2721962630748749,-0.2721962630748749,0.9622417688369751,2837.210205078125,495.7357177734375)" opacity="1" style="display: block;"><image width="169px" height="150px" preserveAspectRatio="xMidYMid slice" xlink:href="images/lotties/lottie1-and-5/img_33.png"></image></g><g clip-path="url(#__lottie_element_357)" style="display: block;" transform="matrix(0.8554746508598328,-0.0657801479101181,0.0657801479101181,0.8554746508598328,2434.61572265625,564.6583862304688)" opacity="1"><g clip-path="url(#__lottie_element_358)"><g style="display: none;" transform="matrix(1,0,0,1,8,13)" opacity="1"><image width="211px" height="154px" preserveAspectRatio="xMidYMid slice" xlink:href="images/lotties/lottie1-and-5/img_32.png"></image></g><g style="display: block;" transform="matrix(1,0,0,1,5,5)" opacity="1"><image width="216px" height="161px" preserveAspectRatio="xMidYMid slice" xlink:href="images/lotties/lottie1-and-5/img_31.png"></image></g><g style="display: none;" transform="matrix(1,0,0,1,8,6)" opacity="1"><image width="204px" height="161px" preserveAspectRatio="xMidYMid slice" xlink:href="images/lotties/lottie1-and-5/img_30.png"></image></g><g style="display: none;" transform="matrix(1,0,0,1,8,13)" opacity="1"><image width="211px" height="154px" preserveAspectRatio="xMidYMid slice" xlink:href="images/lotties/lottie1-and-5/img_32.png"></image></g><g style="display: none;" transform="matrix(1,0,0,1,5,5)" opacity="1"><image width="216px" height="161px" preserveAspectRatio="xMidYMid slice" xlink:href="images/lotties/lottie1-and-5/img_31.png"></image></g><g style="display: none;" transform="matrix(1,0,0,1,8,6)" opacity="1"><image width="204px" height="161px" preserveAspectRatio="xMidYMid slice" xlink:href="images/lotties/lottie1-and-5/img_30.png"></image></g><g style="display: none;" transform="matrix(1,0,0,1,8,13)" opacity="1"><image width="211px" height="154px" preserveAspectRatio="xMidYMid slice" xlink:href="images/lotties/lottie1-and-5/img_32.png"></image></g><g style="display: none;" transform="matrix(1,0,0,1,5,5)" opacity="1">
    <image width="216px" height="161px" preserveAspectRatio="xMidYMid slice" xlink:href="images/lotties/lottie1-and-5/img_31.png"></image></g><g style="display: none;" transform="matrix(1,0,0,1,8,6)" opacity="1"><image width="204px" height="161px" preserveAspectRatio="xMidYMid slice" xlink:href="images/lotties/lottie1-and-5/img_30.png"></image></g><g style="display: none;" transform="matrix(1,0,0,1,8,13)" opacity="1"><image width="211px" height="154px" preserveAspectRatio="xMidYMid slice" xlink:href="images/lotties/lottie1-and-5/img_32.png"></image></g><g style="display: none;" transform="matrix(1,0,0,1,5,5)" opacity="1"><image width="216px" height="161px" preserveAspectRatio="xMidYMid slice" xlink:href="images/lotties/lottie1-and-5/img_31.png"></image></g><g style="display: none;" transform="matrix(1,0,0,1,8,6)" opacity="1"><image width="204px" height="161px" preserveAspectRatio="xMidYMid slice" xlink:href="images/lotties/lottie1-and-5/img_30.png"></image></g><g style="display: none;" transform="matrix(1,0,0,1,8,13)" opacity="1"><image width="211px" height="154px" preserveAspectRatio="xMidYMid slice" xlink:href="images/lotties/lottie1-and-5/img_32.png"></image></g><g style="display: none;" transform="matrix(1,0,0,1,5,5)" opacity="1"><image width="216px" height="161px" preserveAspectRatio="xMidYMid slice" xlink:href="images/lotties/lottie1-and-5/img_31.png"></image></g><g style="display: none;" transform="matrix(1,0,0,1,8,6)" opacity="1"><image width="204px" height="161px" preserveAspectRatio="xMidYMid slice" xlink:href="images/lotties/lottie1-and-5/img_30.png"></image></g><g style="display: none;" transform="matrix(1,0,0,1,8,13)" opacity="1"><image width="211px" height="154px" preserveAspectRatio="xMidYMid slice" xlink:href="images/lotties/lottie1-and-5/img_32.png"></image></g><g style="display: none;" transform="matrix(1,0,0,1,5,5)" opacity="1"><image width="216px" height="161px" preserveAspectRatio="xMidYMid slice" xlink:href="images/lotties/lottie1-and-5/img_31.png"></image></g><g style="display: none;" transform="matrix(1,0,0,1,8,6)" opacity="1"><image width="204px" height="161px" preserveAspectRatio="xMidYMid slice" xlink:href="images/lotties/lottie1-and-5/img_30.png"></image></g></g></g><g style="display: none;" transform="matrix(0.9971820712089539,-0.07501913607120514,0.07501913607120514,0.9971820712089539,2395.8974609375,596.2142333984375)" opacity="1"><image width="213px" height="206px" preserveAspectRatio="xMidYMid slice" xlink:href="images/lotties/lottie1-and-5/img_29.png"></image></g><g style="display: none;" transform="matrix(0.997363805770874,-0.07256264984607697,0.07256264984607697,0.997363805770874,2393.03466796875,591.0028076171875)" opacity="1"><image width="213px" height="206px" preserveAspectRatio="xMidYMid slice" xlink:href="images/lotties/lottie1-and-5/img_29.png"></image></g><g clip-path="url(#__lottie_element_348)" style="display: none;" transform="matrix(1.0145896673202515,-0.06746013462543488,0.06746013462543488,1.0145896673202515,2359.073974609375,611.2379150390625)" opacity="1"><image width="223px" height="218px" preserveAspectRatio="xMidYMid slice" xlink:href="images/lotties/lottie1-and-5/img_28.png"></image></g><g clip-path="url(#__lottie_element_345)" style="display: none;" transform="matrix(1.0145676136016846,-0.0677935853600502,0.0677935853600502,1.0145676136016846,2369.388427734375,601.18408203125)" opacity="1"><image width="223px" height="218px" preserveAspectRatio="xMidYMid slice" xlink:href="images/lotties/lottie1-and-5/img_28.png"></image></g><g transform="matrix(0.9981241226196289,0.06122274324297905,-0.06122274324297905,0.9981241226196289,2608.119140625,445.5539245605469)" opacity="1" style="display: block;"><image width="132px" height="138px" preserveAspectRatio="xMidYMid slice" xlink:href="images/lotties/lottie1-and-5/img_27.png"></image></g><g class="ai" style="display: block;" transform="matrix(0.9973793029785156,0.07235043495893478,-0.07235043495893478,0.9973793029785156,2212.08740234375,202.84075927734375)" opacity="1"><image width="960px" height="560px" preserveAspectRatio="xMidYMid slice" xlink:href="images/lotties/lottie1-and-5/img_26.png"></image></g><g style="display: none;" transform="matrix(0.9932464957237244,-0.11602353304624557,0.11602353304624557,0.9932464957237244,2602.993896484375,463.9270935058594)" opacity="0.027612800000156312"><image width="140px" height="134px" preserveAspectRatio="xMidYMid slice" xlink:href="images/lotties/lottie1-and-5/img_25.png"></image></g><g style="display: none;" transform="matrix(0.993285596370697,-0.11568780988454819,0.11568780988454819,0.993285596370697,2592.85791015625,457.2976379394531)" opacity="0.041964800000158675"><image width="140px" height="134px" preserveAspectRatio="xMidYMid slice" xlink:href="images/lotties/lottie1-and-5/img_25.png"></image></g><g transform="matrix(0.9621228575706482,0.27261608839035034,-0.27261608839035034,0.9621228575706482,2688.777587890625,392.34869384765625)" opacity="1" style="display: block;"><image width="197px" height="117px" preserveAspectRatio="xMidYMid slice" xlink:href="images/lotties/lottie1-and-5/img_24.png"></image></g><g transform="matrix(0.956993818283081,-0.29010844230651855,0.29010844230651855,0.956993818283081,1944.7838134765625,557.1494140625)" opacity="1" style="display: block;"><image width="133px" height="121px" preserveAspectRatio="xMidYMid slice" xlink:href="images/lotties/lottie1-and-5/img_23.png"></image></g><g transform="matrix(0.9716193675994873,-0.23654986917972565,0.23654986917972565,0.9716193675994873,1980.7933349609375,645.0159301757812)" opacity="1" style="display: block;"><image width="149px" height="163px" preserveAspectRatio="xMidYMid slice" xlink:href="images/lotties/lottie1-and-5/img_22.png"></image></g><g transform="matrix(0.9453056454658508,-0.3261861205101013,0.3261861205101013,0.9453056454658508,2275.887451171875,458.6441650390625)" opacity="1" style="display: block;"><image width="65px" height="25px" preserveAspectRatio="xMidYMid slice" xlink:href="images/lotties/lottie1-and-5/img_21.png"></image></g><g transform="matrix(0.9453056454658508,-0.3261861205101013,0.3261861205101013,0.9453056454658508,2266.687744140625,425.85137939453125)" opacity="1" style="display: block;"><image width="39px" height="62px" preserveAspectRatio="xMidYMid slice" xlink:href="images/lotties/lottie1-and-5/img_20.png"></image></g><g clip-path="url(#__lottie_element_284)" style="display: none;" transform="matrix(1,0,0,1,2385,1349.78271484375)" opacity="1"><g style="display: block;" transform="matrix(1,0,0,1,15.088996887207031,17.477996826171875)" opacity="1"><image width="132px" height="132px" preserveAspectRatio="xMidYMid slice" xlink:href="images/lotties/lottie1-and-5/img_8.png"></image></g><g style="display: block;" transform="matrix(1,0,0,1,10.780780792236328,88.46022033691406)" opacity="1"><image width="65px" height="66px" preserveAspectRatio="xMidYMid slice" xlink:href="images/lotties/lottie1-and-5/img_7.png"></image></g><g style="display: block;" transform="matrix(1,0,0,1,10.82244873046875,13.13344955444336)" opacity="1"><image width="65px" height="65px" preserveAspectRatio="xMidYMid slice" xlink:href="images/lotties/lottie1-and-5/img_6.png"></image></g><g style="display: block;" transform="matrix(1,0,0,1,86.89846801757812,88.50687408447266)" opacity="1"><image width="65px" height="66px" preserveAspectRatio="xMidYMid slice" xlink:href="images/lotties/lottie1-and-5/img_5.png"></image></g><g style="display: block;" transform="matrix(1,0,0,1,86.92154693603516,13.1634521484375)" opacity="1"><image width="65px" height="65px" preserveAspectRatio="xMidYMid slice" xlink:href="images/lotties/lottie1-and-5/img_4.png"></image></g><g style="display: none;"><image width="66px" height="66px" preserveAspectRatio="xMidYMid slice" xlink:href="images/lotties/lottie1-and-5/img_3.png"></image></g><g style="display: none;"><image width="66px" height="66px" preserveAspectRatio="xMidYMid slice" xlink:href="images/lotties/lottie1-and-5/img_2.png"></image></g><g style="display: none;"><image width="66px" height="66px" preserveAspectRatio="xMidYMid slice" xlink:href="images/lotties/lottie1-and-5/img_2.png"></image></g><g style="display: block;" transform="matrix(1,0,0,1,49.25,51)" opacity="1"><image width="66px" height="66px" preserveAspectRatio="xMidYMid slice" xlink:href="images/lotties/lottie1-and-5/img_1.png"></image></g><g style="display: none;"><image width="66px" height="66px" preserveAspectRatio="xMidYMid slice" xlink:href="images/lotties/lottie1-and-5/img_0.png"></image></g></g><g clip-path="url(#__lottie_element_250)" style="display: none;" transform="matrix(1,0,0,1,2384.5,635.625)" opacity="1"><g style="display: block;" transform="matrix(1,0,0,1,15.088996887207031,17.477996826171875)" opacity="1"><image width="132px" height="132px" preserveAspectRatio="xMidYMid slice" xlink:href="images/lotties/lottie1-and-5/img_8.png"></image></g><g style="display: block;" transform="matrix(1,0,0,1,10.420001983642578,88.82099914550781)" opacity="1"><image width="65px" height="66px" preserveAspectRatio="xMidYMid slice" xlink:href="images/lotties/lottie1-and-5/img_7.png"></image></g><g style="display: block;" transform="matrix(1,0,0,1,10.445999145507812,12.756999969482422)" opacity="1"><image width="65px" height="65px" preserveAspectRatio="xMidYMid slice" xlink:href="images/lotties/lottie1-and-5/img_6.png"></image></g><g style="display: block;" transform="matrix(1,0,0,1,87.26699829101562,88.85200500488281)" opacity="1"><image width="65px" height="66px" preserveAspectRatio="xMidYMid slice" xlink:href="images/lotties/lottie1-and-5/img_5.png"></image></g><g style="display: block;" transform="matrix(1,0,0,1,87.2979965209961,12.786998748779297)" opacity="1"><image width="65px" height="65px" preserveAspectRatio="xMidYMid slice" xlink:href="images/lotties/lottie1-and-5/img_4.png"></image></g>
    <g style="display: block;" transform="matrix(1,0,0,1,49,50.5)" opacity="1"><image width="66px" height="66px" preserveAspectRatio="xMidYMid slice" xlink:href="images/lotties/lottie1-and-5/img_3.png"></image></g><g style="display: none;"><image width="66px" height="66px" preserveAspectRatio="xMidYMid slice" xlink:href="images/lotties/lottie1-and-5/img_2.png"></image></g><g style="display: none;"><image width="66px" height="66px" preserveAspectRatio="xMidYMid slice" xlink:href="images/lotties/lottie1-and-5/img_2.png"></image></g><g style="display: none;"><image width="66px" height="66px" preserveAspectRatio="xMidYMid slice" xlink:href="images/lotties/lottie1-and-5/img_1.png"></image></g><g style="display: none;"><image width="66px" height="66px" preserveAspectRatio="xMidYMid slice" xlink:href="images/lotties/lottie1-and-5/img_0.png"></image></g></g><g clip-path="url(#__lottie_element_216)" transform="matrix(1,0,0,1,2384.5,635.625)" opacity="1" style="display: none;"><g transform="matrix(1,0,0,1,15.088996887207031,17.477996826171875)" opacity="1" style="display: block;"><image width="132px" height="132px" preserveAspectRatio="xMidYMid slice" xlink:href="images/lotties/lottie1-and-5/img_8.png"></image></g><g transform="matrix(1,0,0,1,10.420001983642578,88.82099914550781)" opacity="1" style="display: block;"><image width="65px" height="66px" preserveAspectRatio="xMidYMid slice" xlink:href="images/lotties/lottie1-and-5/img_7.png"></image></g><g transform="matrix(1,0,0,1,10.445999145507812,12.756999969482422)" opacity="1" style="display: block;"><image width="65px" height="65px" preserveAspectRatio="xMidYMid slice" xlink:href="images/lotties/lottie1-and-5/img_6.png"></image></g><g transform="matrix(1,0,0,1,87.26699829101562,88.85200500488281)" opacity="1" style="display: block;"><image width="65px" height="66px" preserveAspectRatio="xMidYMid slice" xlink:href="images/lotties/lottie1-and-5/img_5.png"></image></g><g transform="matrix(1,0,0,1,87.2979965209961,12.786998748779297)" opacity="1" style="display: block;"><image width="65px" height="65px" preserveAspectRatio="xMidYMid slice" xlink:href="images/lotties/lottie1-and-5/img_4.png"></image></g><g transform="matrix(1,0,0,1,49,50.5)" opacity="1" style="display: block;"><image width="66px" height="66px" preserveAspectRatio="xMidYMid slice" xlink:href="images/lotties/lottie1-and-5/img_3.png"></image></g><g style="display: none;"><image width="66px" height="66px" preserveAspectRatio="xMidYMid slice" xlink:href="images/lotties/lottie1-and-5/img_2.png"></image></g><g style="display: none;"><image width="66px" height="66px" preserveAspectRatio="xMidYMid slice" xlink:href="images/lotties/lottie1-and-5/img_2.png"></image></g><g style="display: none;"><image width="66px" height="66px" preserveAspectRatio="xMidYMid slice" xlink:href="images/lotties/lottie1-and-5/img_1.png"></image></g><g style="display: none;"><image width="66px" height="66px" preserveAspectRatio="xMidYMid slice" xlink:href="images/lotties/lottie1-and-5/img_0.png"></image></g></g><g style="display: none;" transform="matrix(0,0,0,1,2466.5,861)" opacity="1"><image width="514px" height="488px" preserveAspectRatio="xMidYMid slice" xlink:href="images/lotties/lottie1-and-5/img_19.png"></image></g><g style="display: none;" transform="matrix(0,0,0,1,2465.5,904.5)" opacity="1"><image width="514px" height="489px" preserveAspectRatio="xMidYMid slice" xlink:href="images/lotties/lottie1-and-5/img_18.png"></image></g><g transform="matrix(0,0,0,1,2465.5,904.5)" opacity="1" style="display: none;"><image width="514px" height="489px" preserveAspectRatio="xMidYMid slice" xlink:href="images/lotties/lottie1-and-5/img_18.png"></image></g><g clip-path="url(#__lottie_element_204)" transform="matrix(1,0,0,1,1724,1326)" opacity="1" style="display: block;"><image width="1468px" height="231px" preserveAspectRatio="xMidYMid slice" xlink:href="images/lotties/lottie1-and-5/img_17.png"></image></g><g transform="matrix(1,0,0,1,1976,764.7947387695312)" opacity="1" style="display: block;"><image width="974px" height="220px" preserveAspectRatio="xMidYMid slice" xlink:href="images/lotties/lottie1-and-5/img_16.png"></image></g><g transform="matrix(0.9055210947990417,-0.4243013560771942,0.4243013560771942,0.9055210947990417,1968.0792236328125,441.8981628417969)" opacity="1" style="display: block;"><image width="244px" height="148px" preserveAspectRatio="xMidYMid slice" xlink:href="images/lotties/lottie1-and-5/img_15.png"></image></g><g transform="matrix(0.8879804611206055,-0.4598813056945801,0.4598813056945801,0.8879804611206055,2187.107177734375,387.51666259765625)" opacity="1" style="display: block;"><image width="103px" height="121px" preserveAspectRatio="xMidYMid slice" xlink:href="images/lotties/lottie1-and-5/img_14.png"></image></g><g transform="matrix(0.9453056454658508,-0.3261861205101013,0.3261861205101013,0.9453056454658508,2407.158203125,431.33160400390625)" opacity="1" style="display: block;"><image width="14px" height="69px" preserveAspectRatio="xMidYMid slice" xlink:href="images/lotties/lottie1-and-5/img_13.png"></image></g><g transform="matrix(0.9453056454658508,-0.3261861205101013,0.3261861205101013,0.9453056454658508,2249.338134765625,550.3182373046875)" opacity="1" style="display: block;"><image width="51px" height="59px" preserveAspectRatio="xMidYMid slice" xlink:href="images/lotties/lottie1-and-5/img_12.png"></image></g><g transform="matrix(0.9453056454658508,-0.3261861205101013,0.3261861205101013,0.9453056454658508,2340.188720703125,378.2741394042969)" opacity="1" style="display: block;"><image width="62px" height="84px" preserveAspectRatio="xMidYMid slice" xlink:href="images/lotties/lottie1-and-5/img_11.png"></image></g><g transform="matrix(0.9453056454658508,-0.3261861205101013,0.3261861205101013,0.9453056454658508,2210.9541015625,478.9342041015625)" opacity="1" style="display: block;"><image width="30px" height="95px" preserveAspectRatio="xMidYMid slice" xlink:href="images/lotties/lottie1-and-5/img_10.png"></image></g><g transform="matrix(0.9453056454658508,-0.3261861205101013,0.3261861205101013,0.9453056454658508,2190.990234375,414.94635009765625)" opacity="1" style="display: block;"><image width="172px" height="97px" preserveAspectRatio="xMidYMid slice" xlink:href="images/lotties/lottie1-and-5/img_9.png"></image></g><g clip-path="url(#__lottie_element_158)" style="display: none;" transform="matrix(1,0,0,1,2384.5,638.2251586914062)" opacity="1"><g style="display: block;" transform="matrix(1,0,0,1,15.088996887207031,17.477996826171875)" opacity="1"><image width="132px" height="132px" preserveAspectRatio="xMidYMid slice" xlink:href="images/lotties/lottie1-and-5/img_8.png"></image></g><g style="display: block;" transform="matrix(1,0,0,1,6.108001708984375,93.13400268554688)" opacity="1"><image width="65px" height="66px" preserveAspectRatio="xMidYMid slice" xlink:href="images/lotties/lottie1-and-5/img_7.png"></image></g><g style="display: block;" transform="matrix(1,0,0,1,5.9459991455078125,8.257999420166016)" opacity="1"><image width="65px" height="65px" preserveAspectRatio="xMidYMid slice" xlink:href="images/lotties/lottie1-and-5/img_6.png"></image></g><g style="display: block;" transform="matrix(1,0,0,1,91.6729965209961,92.97700500488281)" opacity="1"><image width="65px" height="66px" preserveAspectRatio="xMidYMid slice" xlink:href="images/lotties/lottie1-and-5/img_5.png"></image></g><g style="display: block;" transform="matrix(1,0,0,1,91.7979965209961,8.286998748779297)" opacity="1"><image width="65px" height="65px" preserveAspectRatio="xMidYMid slice" xlink:href="images/lotties/lottie1-and-5/img_4.png"></image></g><g style="display: block;" transform="matrix(1,0,0,1,49,50.5)" opacity="1"><image width="66px" height="66px" preserveAspectRatio="xMidYMid slice" xlink:href="images/lotties/lottie1-and-5/img_3.png"></image></g><g style="display: none;"><image width="66px" height="66px" preserveAspectRatio="xMidYMid slice" xlink:href="images/lotties/lottie1-and-5/img_2.png"></image></g><g style="display: block;" transform="matrix(-0.024545004591345787,0.9996986985206604,-0.9996986985206604,-0.024545004591345787,116.04375457763672,52.082122802734375)" opacity="1"><image width="66px" height="66px" preserveAspectRatio="xMidYMid slice" xlink:href="images/lotties/lottie1-and-5/img_2.png"></image></g><g style="display: none;"><image width="66px" height="66px" preserveAspectRatio="xMidYMid slice" xlink:href="images/lotties/lottie1-and-5/img_1.png"></image></g><g style="display: none;"><image width="66px" height="66px" preserveAspectRatio="xMidYMid slice" xlink:href="images/lotties/lottie1-and-5/img_0.png"></image></g></g><g clip-path="url(#__lottie_element_124)" style="display: none;" transform="matrix(1,0,0,1,2384.5,634.8455200195312)" opacity="1"><g style="display: block;" transform="matrix(1,0,0,1,15.088996887207031,17.477996826171875)" opacity="1"><image width="132px" height="132px" preserveAspectRatio="xMidYMid slice" xlink:href="images/lotties/lottie1-and-5/img_8.png"></image></g><g style="display: block;" transform="matrix(1,0,0,1,6.108001708984375,93.13400268554688)" opacity="1"><image width="65px" height="66px" preserveAspectRatio="xMidYMid slice" xlink:href="images/lotties/lottie1-and-5/img_7.png"></image></g><g style="display: block;" transform="matrix(1,0,0,1,5.9459991455078125,8.257999420166016)" opacity="1"><image width="65px" height="65px" preserveAspectRatio="xMidYMid slice" xlink:href="images/lotties/lottie1-and-5/img_6.png"></image></g><g style="display: block;" transform="matrix(1,0,0,1,91.6729965209961,92.97700500488281)" opacity="1"><image width="65px" height="66px" preserveAspectRatio="xMidYMid slice" xlink:href="images/lotties/lottie1-and-5/img_5.png"></image></g><g style="display: block;" transform="matrix(1,0,0,1,91.7979965209961,8.286998748779297)" opacity="1"><image width="65px" height="65px" preserveAspectRatio="xMidYMid slice" xlink:href="images/lotties/lottie1-and-5/img_4.png"></image></g>
    <g style="display: none;" transform="matrix(1,0,0,1,49,50.5)" opacity="1"><image width="66px" height="66px" preserveAspectRatio="xMidYMid slice" xlink:href="images/lotties/lottie1-and-5/img_3.png"></image></g><g style="display: block;" transform="matrix(0.26994335651397705,0.9628762006759644,-0.9628762006759644,0.26994335651397705,105.16571044921875,43.42270278930664)" opacity="1"><image width="66px" height="66px" preserveAspectRatio="xMidYMid slice" xlink:href="images/lotties/lottie1-and-5/img_2.png"></image></g><g style="display: none;"><image width="66px" height="66px" preserveAspectRatio="xMidYMid slice" xlink:href="images/lotties/lottie1-and-5/img_2.png"></image></g><g style="display: none;"><image width="66px" height="66px" preserveAspectRatio="xMidYMid slice" xlink:href="images/lotties/lottie1-and-5/img_1.png"></image></g><g style="display: none;"><image width="66px" height="66px" preserveAspectRatio="xMidYMid slice" xlink:href="images/lotties/lottie1-and-5/img_0.png"></image></g></g><g clip-path="url(#__lottie_element_90)" style="display: none;" transform="matrix(0.9999998807907104,-0.000017465832570451312,0.000017465832570451312,0.9999998807907104,2384.625,632.5301513671875)" opacity="1"><g style="display: block;" transform="matrix(1,0,0,1,15.088996887207031,17.477996826171875)" opacity="1"><image width="132px" height="132px" preserveAspectRatio="xMidYMid slice" xlink:href="images/lotties/lottie1-and-5/img_8.png"></image></g><g style="display: block;" transform="matrix(1,0,0,1,10.420001983642578,88.82099914550781)" opacity="1"><image width="65px" height="66px" preserveAspectRatio="xMidYMid slice" xlink:href="images/lotties/lottie1-and-5/img_7.png"></image></g><g style="display: block;" transform="matrix(1,0,0,1,10.445999145507812,12.756999969482422)" opacity="1"><image width="65px" height="65px" preserveAspectRatio="xMidYMid slice" xlink:href="images/lotties/lottie1-and-5/img_6.png"></image></g><g style="display: block;" transform="matrix(1,0,0,1,87.26699829101562,88.85200500488281)" opacity="1"><image width="65px" height="66px" preserveAspectRatio="xMidYMid slice" xlink:href="images/lotties/lottie1-and-5/img_5.png"></image></g><g style="display: block;" transform="matrix(1,0,0,1,87.2979965209961,12.786998748779297)" opacity="1"><image width="65px" height="65px" preserveAspectRatio="xMidYMid slice" xlink:href="images/lotties/lottie1-and-5/img_4.png"></image></g><g style="display: block;" transform="matrix(1,0,0,1,49,50.5)" opacity="1"><image width="66px" height="66px" preserveAspectRatio="xMidYMid slice" xlink:href="images/lotties/lottie1-and-5/img_3.png"></image></g><g style="display: none;"><image width="66px" height="66px" preserveAspectRatio="xMidYMid slice" xlink:href="images/lotties/lottie1-and-5/img_2.png"></image></g><g style="display: block;" transform="matrix(0.9527245163917542,-0.30383554100990295,0.30383554100990295,0.9527245163917542,40.369781494140625,62.03434371948242)" opacity="1"><image width="66px" height="66px" preserveAspectRatio="xMidYMid slice" xlink:href="images/lotties/lottie1-and-5/img_2.png"></image></g><g style="display: none;"><image width="66px" height="66px" preserveAspectRatio="xMidYMid slice" xlink:href="images/lotties/lottie1-and-5/img_1.png"></image></g><g style="display: none;"><image width="66px" height="66px" preserveAspectRatio="xMidYMid slice" xlink:href="images/lotties/lottie1-and-5/img_0.png"></image></g></g><g clip-path="url(#__lottie_element_56)" style="display: none;" transform="matrix(0.9999998807907104,-0.000017465832570451312,0.000017465832570451312,0.9999998807907104,2384.625,625.7394409179688)" opacity="1"><g style="display: block;" transform="matrix(1,0,0,1,15.088996887207031,17.477996826171875)" opacity="1"><image width="132px" height="132px" preserveAspectRatio="xMidYMid slice" xlink:href="images/lotties/lottie1-and-5/img_8.png"></image></g><g style="display: block;" transform="matrix(1,0,0,1,10.421039581298828,88.81996154785156)" opacity="1"><image width="65px" height="66px" preserveAspectRatio="xMidYMid slice" xlink:href="images/lotties/lottie1-and-5/img_7.png"></image></g><g style="display: block;" transform="matrix(1,0,0,1,10.44708251953125,12.75808334350586)" opacity="1"><image width="65px" height="65px" preserveAspectRatio="xMidYMid slice" xlink:href="images/lotties/lottie1-and-5/img_6.png"></image></g><g style="display: block;" transform="matrix(1,0,0,1,87.26593780517578,88.85101318359375)" opacity="1"><image width="65px" height="66px" preserveAspectRatio="xMidYMid slice" xlink:href="images/lotties/lottie1-and-5/img_5.png"></image></g><g style="display: block;" transform="matrix(1,0,0,1,87.29691314697266,12.788082122802734)" opacity="1"><image width="65px" height="65px" preserveAspectRatio="xMidYMid slice" xlink:href="images/lotties/lottie1-and-5/img_4.png"></image></g><g style="display: none;"><image width="66px" height="66px" preserveAspectRatio="xMidYMid slice" xlink:href="images/lotties/lottie1-and-5/img_3.png"></image></g><g style="display: none;" transform="matrix(0.7876148819923401,-0.6161678433418274,0.6161678433418274,0.7876148819923401,35.31399154663086,77.79440307617188)" opacity="1"><image width="66px" height="66px" preserveAspectRatio="xMidYMid slice" xlink:href="images/lotties/lottie1-and-5/img_2.png"></image></g><g style="display: none;"><image width="66px" height="66px" preserveAspectRatio="xMidYMid slice" xlink:href="images/lotties/lottie1-and-5/img_2.png"></image></g><g style="display: block;" transform="matrix(1,0,0,1,49.25,51)" opacity="1"><image width="66px" height="66px" preserveAspectRatio="xMidYMid slice" xlink:href="images/lotties/lottie1-and-5/img_1.png"></image></g><g style="display: none;"><image width="66px" height="66px" preserveAspectRatio="xMidYMid slice" xlink:href="images/lotties/lottie1-and-5/img_0.png"></image></g></g><g clip-path="url(#__lottie_element_7)" style="display: block;" transform="matrix(0.5851265788078308,0,0,0.5851265788078308,2417.55908203125,658.0988159179688)" opacity="1"><g style="display: block;" transform="matrix(1,0,0,1,15.088996887207031,17.477996826171875)" opacity="1"><image width="132px" height="132px" preserveAspectRatio="xMidYMid slice" xlink:href="images/lotties/lottie1-and-5/img_8.png"></image></g><g style="display: block;" transform="matrix(1,0,0,1,10.420001983642578,88.82099914550781)" opacity="1"><image width="65px" height="66px" preserveAspectRatio="xMidYMid slice" xlink:href="images/lotties/lottie1-and-5/img_7.png"></image></g><g style="display: block;" transform="matrix(1,0,0,1,10.445999145507812,12.756999969482422)" opacity="1"><image width="65px" height="65px" preserveAspectRatio="xMidYMid slice" xlink:href="images/lotties/lottie1-and-5/img_6.png"></image></g><g style="display: block;" transform="matrix(1,0,0,1,87.26699829101562,88.85200500488281)" opacity="1"><image width="65px" height="66px" preserveAspectRatio="xMidYMid slice" xlink:href="images/lotties/lottie1-and-5/img_5.png"></image></g><g style="display: block;" transform="matrix(1,0,0,1,87.2979965209961,12.786998748779297)" opacity="1"><image width="65px" height="65px" preserveAspectRatio="xMidYMid slice" xlink:href="images/lotties/lottie1-and-5/img_4.png"></image></g><g style="display: none;"><image width="66px" height="66px" preserveAspectRatio="xMidYMid slice" xlink:href="images/lotties/lottie1-and-5/img_3.png"></image></g><g style="display: none;"><image width="66px" height="66px" preserveAspectRatio="xMidYMid slice" xlink:href="images/lotties/lottie1-and-5/img_2.png"></image></g><g style="display: none;"><image width="66px" height="66px" preserveAspectRatio="xMidYMid slice" xlink:href="images/lotties/lottie1-and-5/img_2.png"></image></g><g style="display: none;"><image width="66px" height="66px" preserveAspectRatio="xMidYMid slice" xlink:href="images/lotties/lottie1-and-5/img_1.png"></image></g><g style="display: block;" transform="matrix(1,0,0,1,49.25,51.25)" opacity="1"><image width="66px" height="66px" preserveAspectRatio="xMidYMid slice" xlink:href="images/lotties/lottie1-and-5/img_0.png"></image></g></g></g></svg>